<svg xmlns="http://www.w3.org/2000/svg" width="38" height="38" viewBox="0 0 38 38">
    <path fill="#000" fill-rule="evenodd" d="M19 38C8.507 38 0 29.493 0 19S8.507 0 19 0s19 8.507 19 19-8.507 19-19 19zm8.1-12.364v-5.528c0-3.08-1.752-4.51-3.982-4.51-1.798 0-2.924.974-3.133 1.656v-1.56H16.46c.046.828 0 9.942 0 9.942h3.525v-5.38c0-.3-.014-.598.077-.813.242-.598.763-1.218 1.7-1.218 1.223 0 1.78.92 1.78 2.266v5.145H27.1zM12.895 14.45c1.18 0 1.914-.763 1.914-1.726-.023-.982-.734-1.724-1.892-1.724-1.159 0-1.917.744-1.917 1.726 0 .964.736 1.724 1.872 1.724h.023zm-1.489 1.244v9.942h3.138v-9.942h-3.138z" opacity=".2"/>
</svg>
