<svg xmlns="http://www.w3.org/2000/svg" width="38" height="38" viewBox="0 0 38 38">
    <path fill="#000" fill-rule="evenodd" d="M19 38C8.507 38 0 29.493 0 19S8.507 0 19 0s19 8.507 19 19-8.507 19-19 19zm-8.007-10h8.621v-6.97H17.27v-2.717h2.345v-2.004c0-2.324 1.42-3.59 3.494-3.59.994 0 1.848.074 2.096.107v2.43h-1.438c-1.128 0-1.346.536-1.346 1.322v1.735h2.69l-.35 2.716h-2.34V28h4.587a.994.994 0 0 0 .993-.994V10.993a.993.993 0 0 0-.993-.993H10.993a.993.993 0 0 0-.993.993v16.013c0 .55.445.994.993.994z" opacity=".2"/>
</svg>
