<svg xmlns="http://www.w3.org/2000/svg" width="38" height="38" viewBox="0 0 38 38">
    <path fill="#000" fill-rule="evenodd" d="M19.001 0C8.508 0 0 8.506 0 19.001c0 7.778 4.679 14.463 11.375 17.401-.053-1.325-.009-2.92.329-4.363.366-1.542 2.444-10.352 2.444-10.352s-.605-1.213-.605-3.008c0-2.815 1.633-4.917 3.664-4.917 1.727 0 2.563 1.298 2.563 2.853 0 1.736-1.109 4.334-1.678 6.74-.476 2.019 1.01 3.66 2.998 3.66 3.6 0 6.024-4.622 6.024-10.1 0-4.163-2.804-7.28-7.905-7.28-5.763 0-9.353 4.296-9.353 9.096 0 1.658.487 2.824 1.251 3.727.353.418.4.583.273 1.061-.09.346-.3 1.19-.387 1.524-.127.48-.516.655-.95.476-2.656-1.084-3.892-3.99-3.892-7.26 0-5.396 4.552-11.87 13.579-11.87 7.255 0 12.03 5.252 12.03 10.885 0 7.454-4.143 13.022-10.254 13.022-2.05 0-3.98-1.108-4.64-2.366 0 0-1.105 4.377-1.337 5.221-.402 1.464-1.191 2.93-1.913 4.07 1.71.504 3.515.779 5.385.779C29.494 38 38 29.494 38 19.001 38 8.506 29.494 0 19.001 0" opacity=".2"/>
</svg>
