<svg xmlns="http://www.w3.org/2000/svg" width="38" height="38" viewBox="0 0 38 38">
    <path fill="#000" fill-rule="evenodd" d="M19 38C8.507 38 0 29.493 0 19S8.507 0 19 0s19 8.507 19 19-8.507 19-19 19zm10.4-25.988a8.175 8.175 0 0 1-2.403.676 4.282 4.282 0 0 0 1.84-2.374 8.243 8.243 0 0 1-2.66 1.04A4.127 4.127 0 0 0 23.124 10c-2.31 0-4.183 1.922-4.183 4.291 0 .337.035.663.107.978-3.478-.18-6.561-1.886-8.627-4.486a4.37 4.37 0 0 0-.566 2.16 4.32 4.32 0 0 0 1.862 3.572 4.11 4.11 0 0 1-1.897-.535v.053c0 2.08 1.443 3.815 3.359 4.208-.351.1-.721.15-1.103.15-.27 0-.533-.025-.788-.076.533 1.705 2.078 2.946 3.91 2.98A8.264 8.264 0 0 1 9 25.072 11.653 11.653 0 0 0 15.416 27c7.699 0 11.908-6.538 11.908-12.21 0-.187-.004-.373-.011-.556a8.59 8.59 0 0 0 2.087-2.222z" opacity=".2"/>
</svg>
