<?xml version="1.0" encoding="utf-8"?>
<!-- Generator: Adobe Illustrator 18.1.1, SVG Export Plug-In . SVG Version: 6.00 Build 0)  -->
<svg version="1.1" id="Layer_1" xmlns="http://www.w3.org/2000/svg" xmlns:xlink="http://www.w3.org/1999/xlink" x="0px" y="0px"
	 viewBox="0 0 18 37.7506" enable-background="new 0 0 18 37.7506" xml:space="preserve">
<polyline fill="#191911" points="18,6.7053 18,0.4848 0.7296,9.1418 8.9132,11.2596 18,6.7053 "/>
<polyline fill="#191911" points="18,21.4717 18,15.1336 0,20.4992 0,26.8373 18,21.4708 "/>
<polyline fill="#191911" points="16.8377,14.3879 0,10.0337 0,16.3861 5.4225,17.7922 16.8368,14.3879 "/>
<polyline fill="#191911" points="18,31.959 18,25.6019 12.5509,24.1863 1.1604,27.5821 18,31.959 "/>
<polyline fill="#191911" points="0,0 0,6.4074 3.8427,6.4074 16.6299,0 0,0 "/>
<polyline fill="#191911" points="5.468,29.7805 0,31.4106 0,37.7506 16.8282,32.7342 5.468,29.7805 "/>
</svg>
